<?xml version="1.0" encoding="utf-8"?>
<!-- Generator: Adobe Illustrator 16.0.0, SVG Export Plug-In . SVG Version: 6.00 Build 0)  -->
<!DOCTYPE svg PUBLIC "-//W3C//DTD SVG 1.1//EN" "http://www.w3.org/Graphics/SVG/1.1/DTD/svg11.dtd">
<svg version="1.1" id="Layer_1" xmlns="http://www.w3.org/2000/svg" xmlns:xlink="http://www.w3.org/1999/xlink" x="0px" y="0px"
	 width="1100px" height="792px" viewBox="0 0 1100 792" enable-background="new 0 0 1100 792" xml:space="preserve">
<rect x="-3.321" y="-4.679" width="1103.321" height="796.679"/>
<path fill="#479BC5" d="M76.482-2.57c-1.392-0.059-2.784,0.075-4.167,0.318c-0.165,0.029-0.297,0.078-0.438,0.122
	c0.067,0.432,0.076,0.859,0.076,1.116v7.578l72.115,72.028V64.935L76.482-2.57z"/>
<path fill="#479BC5" d="M143.985,29.66c0-0.097,0.009-0.182,0.014-0.272L90.469-24.078l-6.829,6.836l60.344,60.272V29.66z"/>
<path fill="#479BC5" d="M71.979,28.338l-0.005,0.004c0,0.005,0,0.013,0,0.018v13.724l72.094,72.007v-13.75L71.979,28.338z"/>
<path fill="#479BC5" d="M143.985,65.16c0-0.097,0.009-0.182,0.014-0.272L90.469,11.422l-6.829,6.836l60.344,60.272V65.16z"/>
<path fill="#479BC5" d="M71.99,63.789c0.001,0.114-0.011,0.229-0.017,0.343c0,0.026,0.001,0.06,0.001,0.083V77.53l72.094,72.007
	V135.78L71.99,63.789z"/>
<path fill="#479BC5" d="M71.994,99.3c0,0.012,0,0.029,0,0.041v13.71l72.073,71.986v-13.75L71.994,99.3z"/>
<path fill="#479BC5" d="M71.994,99.3c0,0.012,0,0.029,0,0.041v13.71l72.073,71.986v-13.75L71.994,99.3z"/>
<path fill="#479BC5" d="M72.001,134.755c-0.024,0.314-0.076,0.621-0.152,0.905v12.69l72.219,72.132v-13.747L72.001,134.755z"/>
<path fill="#479BC5" d="M143.985,171.552c0-0.097,0.009-0.182,0.014-0.272l-53.529-53.466l-6.829,6.836l60.344,60.272V171.552z"/>
<path fill="#479BC5" d="M71.979,170.23l-0.118,0.118c0.099,0.493,0.114,1.011,0.114,1.305v12.323l72.094,72.007v-13.75
	L71.979,170.23z"/>
<path fill="#479BC5" d="M143.985,207.052c0-0.097,0.009-0.182,0.014-0.272l-53.529-53.466l-6.829,6.836l60.344,60.272V207.052z"/>
<path fill="#479BC5" d="M71.979,170.23l-0.118,0.118c0.099,0.493,0.114,1.011,0.114,1.305v12.323l72.094,72.007v-13.75
	L71.979,170.23z"/>
<polygon fill="#479BC5" points="72,205.697 72,219.448 144.068,291.429 144.068,277.678 "/>
<polygon fill="#479BC5" points="71.924,276.197 71.924,289.948 143.992,361.929 143.992,348.178 "/>
<path fill="#479BC5" d="M143.985,242.498c0-0.097,0.009-0.182,0.014-0.272l-53.529-53.466l-6.829,6.836l60.344,60.272V242.498z"/>
<polygon fill="#479BC5" points="72,241.197 72,254.948 144.068,326.929 144.068,313.178 "/>
<path fill="#479BC5" d="M143.985,277.998c0-0.097,0.009-0.182,0.014-0.272l-53.529-53.466l-6.829,6.836l60.344,60.272V277.998z"/>
<polygon fill="#479BC5" points="72,241.197 72,254.948 144.068,326.929 144.068,313.178 "/>
<polygon fill="#479BC5" points="72.469,277.205 72,277.675 72,290.394 144.068,362.375 144.068,348.718 "/>
<path fill="#479BC5" d="M143.985,313.443c0-0.097,0.009-0.182,0.014-0.272l-53.529-53.466l-6.829,6.836l60.344,60.272V313.443z"/>
<polygon fill="#479BC5" points="72,312.143 72,325.894 144.068,397.875 144.068,384.124 "/>
<path fill="#479BC5" d="M143.985,348.943c0-0.097,0.009-0.182,0.014-0.272l-53.529-53.466l-6.829,6.836l60.344,60.272V348.943z"/>
<polygon fill="#479BC5" points="72,312.143 72,325.893 144.068,397.874 144.068,384.124 "/>
<polygon fill="#479BC5" points="72,347.87 72,361.62 144.068,433.602 144.068,419.851 "/>
<polygon fill="#479BC5" points="72.469,348.4 72,348.87 72,361.589 144.068,433.57 144.068,419.913 "/>
<path fill="#479BC5" d="M143.985,384.389c0-0.097,0.009-0.182,0.014-0.272L90.469,330.65l-6.829,6.836l60.344,60.272V384.389z"/>
<polygon fill="#479BC5" points="72,383.088 72,396.839 144.068,468.82 144.068,455.069 "/>
<polygon fill="#479BC5" points="72,418.213 72,431.963 144.068,503.944 144.068,490.193 "/>
<polygon fill="#479BC5" points="72.469,419.096 72,419.565 72,432.284 144.068,504.266 144.068,490.608 "/>
<polygon fill="#479BC5" points="72,454.033 72,467.784 144.068,539.766 144.068,526.015 "/>
<polygon fill="#479BC5" points="72,454.033 72,467.784 144.068,539.766 144.068,526.015 "/>
<polygon fill="#479BC5" points="72,489.033 72,502.783 144.068,574.765 144.068,561.014 "/>
<polygon fill="#479BC5" points="72.469,490.041 72,490.511 72,503.229 144.068,575.211 144.068,561.554 "/>
<polygon fill="#479BC5" points="72,524.979 72,538.729 144.068,610.711 144.068,596.96 "/>
<polygon fill="#479BC5" points="72,524.979 72,538.729 144.068,610.711 144.068,596.96 "/>
<polygon fill="#479BC5" points="72,524.979 72,538.729 144.068,610.711 144.068,596.96 "/>
<polygon fill="#479BC5" points="72,560.104 72,573.854 144.068,645.835 144.068,632.084 "/>
<polygon fill="#479BC5" points="72.469,560.986 72,561.456 72,574.175 144.068,646.156 144.068,632.499 "/>
<polygon fill="#479BC5" points="72,595.924 72,609.675 144.068,681.656 144.068,667.905 "/>
<polygon fill="#479BC5" points="72.247,595.903 72,596.15 72,609.408 144.336,681.657 144.336,667.906 "/>
<polygon fill="#479BC5" points="72.247,595.903 72,596.15 72,609.408 144.336,681.657 144.336,667.906 "/>
<polygon fill="#479BC5" points="72.247,595.903 72,596.15 72,609.408 144.336,681.657 144.336,667.906 "/>
<polygon fill="#479BC5" points="72.247,631.028 72,631.275 72,644.532 144.336,716.781 144.336,703.03 "/>
<path fill="#479BC5" d="M72.738,631.933L72,632.671v3.118c0.199,0.589,0.222,1.331,0.222,1.708v7.577l72.115,72.028v-13.657
	L72.738,631.933z"/>
<polygon fill="#479BC5" points="72.247,666.849 72,667.096 72,680.354 144.336,752.603 144.336,738.852 "/>
<polygon fill="#479BC5" points="72,667.004 72,680.756 143.934,752.603 143.934,738.852 "/>
<polygon fill="#479BC5" points="72.113,666.85 72,666.963 72,680.488 144.202,752.604 144.202,738.853 "/>
<polygon fill="#479BC5" points="72.113,666.85 72,666.963 72,680.488 144.202,752.604 144.202,738.853 "/>
<polygon fill="#479BC5" points="72.113,666.85 72,666.963 72,680.488 144.202,752.604 144.202,738.853 "/>
<polygon fill="#479BC5" points="72.113,701.85 72,701.963 72,715.487 144.202,787.603 144.202,773.852 "/>
<path fill="#479BC5" d="M72.604,702.879L72,703.483v3.786c0.076,0.452,0.087,0.906,0.087,1.174v7.577l72.115,72.028v-13.657
	L72.604,702.879z"/>
<polygon fill="#479BC5" points="72.113,737.795 72,737.908 72,751.434 144.202,823.549 144.202,809.798 "/>
<polygon fill="#479BC5" points="72.045,737.795 72,737.841 72,751.501 144.135,823.549 144.135,809.798 "/>
<polygon fill="#479BC5" points="72,738.152 72,751.903 143.732,823.549 143.732,809.798 "/>
<polygon fill="#479BC5" points="72,737.885 72,751.636 144,823.55 144,809.799 "/>
<polygon fill="#479BC5" points="72,737.885 72,751.636 144,823.55 144,809.799 "/>
<polygon fill="#479BC5" points="72,737.885 72,751.636 144,823.55 144,809.799 "/>
<polygon fill="#479BC5" points="72,737.885 72,751.635 144,823.549 144,809.798 "/>
<polygon fill="#479BC5" points="72.402,773.825 72,774.228 72,787.081 144,858.995 144,845.338 "/>
<path fill="#479BC5" d="M143.917,810.063c0-0.098,0.009-0.182,0.014-0.272l-53.529-53.466l-6.829,6.836l60.344,60.272V810.063z"/>
<path fill="#479BC5" d="M143.917,845.563c0-0.098,0.009-0.182,0.014-0.272l-53.529-53.466l-6.829,6.836l60.344,60.272V845.563z"/>
<line fill="none" stroke="#479BC5" stroke-width="10" stroke-miterlimit="10" x1="108.168" y1="673.904" x2="236.071" y2="801.808"/>
<line fill="none" stroke="#479BC5" stroke-width="10" stroke-miterlimit="10" x1="108.021" y1="106.663" x2="-3.321" y2="-4.679"/>
<line fill="none" stroke="#479BC5" stroke-width="14" stroke-miterlimit="10" x1="144.336" y1="674.904" x2="1102.333" y2="674.904"/>
<rect x="172.12" y="153" fill="none" width="868.88" height="457.711"/>
<text transform="matrix(1 0 0 1 250.6162 294.998)"><tspan x="0" y="0" fill="#479BC5" font-family="'MyriadPro-Regular'" font-size="200">Oziks LLC</tspan><tspan x="586.123" y="118.8" fill="#FFFFFF" font-family="'MyriadPro-Regular'" font-size="36">Usanov Denis</tspan><tspan x="703.907" y="157.2" fill="#479BC5" font-family="'MyriadPro-Regular'" font-size="21">freelanser</tspan><tspan x="606.669" y="261.601" fill="#FFFFFF" font-family="'MyriadPro-Regular'" font-size="24">+7 (960) 156 58 58</tspan><tspan x="606.669" y="290.4" fill="#FFFFFF" font-family="'MyriadPro-Regular'" font-size="24">+7 (960) 156 56 23</tspan></text>
</svg>
