<?xml version="1.0" encoding="utf-8"?>
<!-- Generator: Adobe Illustrator 16.0.0, SVG Export Plug-In . SVG Version: 6.00 Build 0)  -->
<!DOCTYPE svg PUBLIC "-//W3C//DTD SVG 1.1//EN" "http://www.w3.org/Graphics/SVG/1.1/DTD/svg11.dtd">
<svg version="1.1" id="Layer_1" xmlns="http://www.w3.org/2000/svg" xmlns:xlink="http://www.w3.org/1999/xlink" x="0px" y="0px"
	 width="500px" height="500px" viewBox="0 0 500 500" enable-background="new 0 0 500 500" xml:space="preserve">
<rect width="500" height="500"/>
<path fill="#E4DA4E" d="M352,36H152c-44.183,0-80,35.817-80,80v268c0,44.182,35.817,80,80,80h200c44.183,0,80-35.818,80-80v-7.723
	C425.976,387.902,413.795,396,400,396c-0.168,0-0.333-0.012-0.5-0.014c-0.167,0.002-0.332,0.014-0.5,0.014H181
	c-19.625,0-36-16.377-36-36c0-3.072,0.402-6.064,1.154-8.928c1.488-6.217,4.618-12.09,9.39-16.861
	C206.948,282.807,258.352,231.404,309.755,180H180.333c-19.625,0-36-16.375-36-36s16.375-36,36-36h216.057
	c1.352-0.159,2.721-0.25,4.109-0.25c11.983,0,22.74,6.118,29.312,15.341c0.321,0.444,0.634,0.894,0.936,1.352
	c0.017,0.027,0.034,0.054,0.052,0.081c0.42,0.642,0.821,1.297,1.201,1.965V116C432,71.817,396.183,36,352,36z"/>
</svg>
