<?xml version="1.0" encoding="utf-8"?>
<!-- Generator: Adobe Illustrator 16.0.0, SVG Export Plug-In . SVG Version: 6.00 Build 0)  -->
<!DOCTYPE svg PUBLIC "-//W3C//DTD SVG 1.1//EN" "http://www.w3.org/Graphics/SVG/1.1/DTD/svg11.dtd">
<svg version="1.1" id="Layer_1" xmlns="http://www.w3.org/2000/svg" xmlns:xlink="http://www.w3.org/1999/xlink" x="0px" y="0px"
	 width="612px" height="792px" viewBox="0 0 612 792" enable-background="new 0 0 612 792" xml:space="preserve">
<ellipse fill="#D55D43" stroke="#D55D43" stroke-miterlimit="10" cx="234.063" cy="234.083" rx="18.153" ry="18.25"/>
<ellipse fill="#D55D43" stroke="#D55D43" stroke-miterlimit="10" cx="252.216" cy="234.083" rx="18.153" ry="18.25"/>
<ellipse fill="#D55D43" stroke="#D55D43" stroke-miterlimit="10" cx="270.369" cy="234.083" rx="18.153" ry="18.25"/>
<ellipse fill="#D55D43" stroke="#D55D43" stroke-miterlimit="10" cx="288.167" cy="234.083" rx="18.153" ry="18.25"/>
<ellipse fill="#D55D43" stroke="#D55D43" stroke-miterlimit="10" cx="306" cy="233.75" rx="18.153" ry="18.25"/>
<ellipse fill="#D55D43" stroke="#D55D43" stroke-miterlimit="10" cx="324" cy="234.083" rx="18.153" ry="18.25"/>
<ellipse fill="#D55D43" stroke="#D55D43" stroke-miterlimit="10" cx="342.152" cy="233.75" rx="18.152" ry="18.25"/>
<ellipse fill="#D55D43" stroke="#D55D43" stroke-miterlimit="10" cx="360.305" cy="234.083" rx="18.152" ry="18.25"/>
<ellipse fill="#D55D43" stroke="#D55D43" stroke-miterlimit="10" cx="378.152" cy="234.083" rx="18.152" ry="18.25"/>
<ellipse fill="#D55D43" stroke="#D55D43" stroke-miterlimit="10" cx="367.727" cy="252.333" rx="18.152" ry="18.25"/>
<ellipse fill="#D55D43" stroke="#D55D43" stroke-miterlimit="10" cx="357.753" cy="270.25" rx="18.152" ry="18.25"/>
<ellipse fill="#D55D43" stroke="#D55D43" stroke-miterlimit="10" cx="347.707" cy="287.833" rx="18.152" ry="18.25"/>
<ellipse fill="#D55D43" stroke="#D55D43" stroke-miterlimit="10" cx="337.436" cy="306.083" rx="18.152" ry="18.25"/>
<ellipse fill="#D55D43" stroke="#D55D43" stroke-miterlimit="10" cx="327.416" cy="323.951" rx="18.152" ry="18.25"/>
<ellipse fill="#D55D43" stroke="#D55D43" stroke-miterlimit="10" cx="316.911" cy="342.202" rx="18.152" ry="18.25"/>
<ellipse fill="#D55D43" stroke="#D55D43" stroke-miterlimit="10" cx="306.997" cy="359.976" rx="18.152" ry="18.25"/>
<ellipse fill="#D55D43" stroke="#D55D43" stroke-miterlimit="10" cx="296.461" cy="378.226" rx="18.152" ry="18.25"/>
<ellipse fill="#D55D43" stroke="#D55D43" stroke-miterlimit="10" cx="286.385" cy="396" rx="18.152" ry="18.25"/>
<ellipse fill="#D55D43" stroke="#D55D43" stroke-miterlimit="10" cx="276.293" cy="414.25" rx="18.152" ry="18.25"/>
<ellipse fill="#D55D43" stroke="#D55D43" stroke-miterlimit="10" cx="266.191" cy="432.081" rx="18.152" ry="18.25"/>
<ellipse fill="#D55D43" stroke="#D55D43" stroke-miterlimit="10" cx="255.982" cy="449.917" rx="18.152" ry="18.25"/>
<ellipse fill="#D55D43" stroke="#D55D43" stroke-miterlimit="10" cx="245.848" cy="468" rx="18.152" ry="18.25"/>
<ellipse fill="#D55D43" stroke="#D55D43" stroke-miterlimit="10" cx="378.152" cy="486.25" rx="18.152" ry="18.251"/>
<ellipse fill="#D55D43" stroke="#D55D43" stroke-miterlimit="10" cx="360" cy="486.25" rx="18.152" ry="18.251"/>
<ellipse fill="#D55D43" stroke="#D55D43" stroke-miterlimit="10" cx="341.848" cy="486.25" rx="18.152" ry="18.251"/>
<ellipse fill="#D55D43" stroke="#D55D43" stroke-miterlimit="10" cx="323.695" cy="486.25" rx="18.152" ry="18.251"/>
<ellipse fill="#D55D43" stroke="#D55D43" stroke-miterlimit="10" cx="305.543" cy="486.25" rx="18.152" ry="18.251"/>
<ellipse fill="#D55D43" stroke="#D55D43" stroke-miterlimit="10" cx="288.167" cy="486.25" rx="18.152" ry="18.251"/>
<ellipse fill="#D55D43" stroke="#D55D43" stroke-miterlimit="10" cx="270.368" cy="486.249" rx="18.152" ry="18.251"/>
<ellipse fill="#D55D43" stroke="#D55D43" stroke-miterlimit="10" cx="252.216" cy="486.25" rx="18.152" ry="18.251"/>
<ellipse fill="#D55D43" stroke="#D55D43" stroke-miterlimit="10" cx="234.063" cy="486.25" rx="18.152" ry="18.251"/>
</svg>
