<?xml version="1.0" encoding="utf-8"?>
<!-- Generator: Adobe Illustrator 16.0.0, SVG Export Plug-In . SVG Version: 6.00 Build 0)  -->
<!DOCTYPE svg PUBLIC "-//W3C//DTD SVG 1.1//EN" "http://www.w3.org/Graphics/SVG/1.1/DTD/svg11.dtd">
<svg version="1.1" id="Layer_1" xmlns="http://www.w3.org/2000/svg" xmlns:xlink="http://www.w3.org/1999/xlink" x="0px" y="0px"
	 width="1400px" height="1400px" viewBox="0 0 1400 1400" enable-background="new 0 0 1400 1400" xml:space="preserve">
<radialGradient id="SVGID_1_" cx="540" cy="612" r="324" gradientUnits="userSpaceOnUse">
	<stop  offset="0" style="stop-color:#745B94"/>
	<stop  offset="1" style="stop-color:#645792"/>
</radialGradient>
<radialGradient id="SVGID_2_" cx="540" cy="612" r="333" gradientUnits="userSpaceOnUse">
	<stop  offset="0" style="stop-color:#745B94"/>
	<stop  offset="0" style="stop-color:#D76445"/>
</radialGradient>
<path fill="url(#SVGID_1_)" stroke="url(#SVGID_2_)" stroke-width="18" stroke-miterlimit="10" d="M864,826
	c0,60.751-49.249,110-110,110H326c-60.751,0-110-49.249-110-110V398c0-60.751,49.249-110,110-110h428c60.751,0,110,49.249,110,110
	V826z"/>
<polygon fill="#D76445" points="549,485.212 549,663.772 791.667,540.128 791.667,361.567 "/>
<polygon fill="#D76445" points="531.011,485.211 531.011,663.771 288.344,540.127 288.344,361.566 "/>
<polygon fill="#D76445" points="531.011,685.44 531.011,864 288.344,740.357 288.344,561.795 "/>
<polygon fill="#D76445" points="549.333,685.44 549.333,864 792,740.357 792,561.795 "/>
</svg>
