<?xml version="1.0" encoding="utf-8"?>
<!-- Generator: Adobe Illustrator 16.0.0, SVG Export Plug-In . SVG Version: 6.00 Build 0)  -->
<!DOCTYPE svg PUBLIC "-//W3C//DTD SVG 1.1//EN" "http://www.w3.org/Graphics/SVG/1.1/DTD/svg11.dtd">
<svg version="1.1" id="Layer_1" xmlns="http://www.w3.org/2000/svg" xmlns:xlink="http://www.w3.org/1999/xlink" x="0px" y="0px"
	 width="612px" height="792px" viewBox="0 0 612 792" enable-background="new 0 0 612 792" xml:space="preserve">
<path fill="#D55D43" stroke="#CBCFC0" stroke-width="4" stroke-miterlimit="10" d="M431.667,419.667c0,6.627-5.373,12-12,12h-228
	c-6.627,0-12-5.372-12-12V192.333c0-6.627,5.373-12,12-12h228c6.627,0,12,5.373,12,12V419.667z"/>
<ellipse fill="#D55D43" stroke="#D55D43" stroke-miterlimit="10" cx="234.063" cy="227.138" rx="18.153" ry="11.43"/>
<ellipse fill="#CBCFC0" stroke="#D55D43" stroke-miterlimit="10" cx="252.216" cy="227.138" rx="18.153" ry="11.43"/>
<ellipse fill="#D55D43" stroke="#D55D43" stroke-miterlimit="10" cx="270.369" cy="227.138" rx="18.153" ry="11.431"/>
<ellipse fill="#CBCFC0" stroke="#D55D43" stroke-miterlimit="10" cx="288.167" cy="227.138" rx="18.153" ry="11.431"/>
<ellipse fill="#D55D43" stroke="#D55D43" stroke-miterlimit="10" cx="306" cy="226.929" rx="18.153" ry="11.431"/>
<ellipse fill="#CBCFC0" stroke="#D55D43" stroke-miterlimit="10" cx="324" cy="227.138" rx="18.153" ry="11.43"/>
<ellipse fill="#D55D43" stroke="#D55D43" stroke-miterlimit="10" cx="342.152" cy="226.929" rx="18.152" ry="11.431"/>
<ellipse fill="#CBCFC0" stroke="#D55D43" stroke-miterlimit="10" cx="360.305" cy="227.138" rx="18.152" ry="11.43"/>
<ellipse fill="#D55D43" stroke="#D55D43" stroke-miterlimit="10" cx="378.152" cy="227.138" rx="18.152" ry="11.43"/>
<ellipse fill="#CBCFC0" stroke="#D55D43" stroke-miterlimit="10" cx="367.727" cy="238.568" rx="18.152" ry="11.43"/>
<ellipse fill="#D55D43" stroke="#D55D43" stroke-miterlimit="10" cx="357.753" cy="249.79" rx="18.152" ry="11.43"/>
<ellipse fill="#CBCFC0" stroke="#D55D43" stroke-miterlimit="10" cx="347.707" cy="260.802" rx="18.152" ry="11.43"/>
<ellipse fill="#D55D43" stroke="#D55D43" stroke-miterlimit="10" cx="337.436" cy="272.232" rx="18.152" ry="11.43"/>
<ellipse fill="#CBCFC0" stroke="#D55D43" stroke-miterlimit="10" cx="327.416" cy="283.422" rx="18.152" ry="11.43"/>
<ellipse fill="#D55D43" stroke="#D55D43" stroke-miterlimit="10" cx="316.911" cy="294.853" rx="18.152" ry="11.43"/>
<ellipse fill="#CBCFC0" stroke="#D55D43" stroke-miterlimit="10" cx="306.997" cy="305.984" rx="18.152" ry="11.43"/>
<ellipse fill="#D55D43" stroke="#D55D43" stroke-miterlimit="10" cx="296.461" cy="317.415" rx="18.152" ry="11.43"/>
<ellipse fill="#CBCFC0" stroke="#D55D43" stroke-miterlimit="10" cx="286.385" cy="328.546" rx="18.152" ry="11.43"/>
<ellipse fill="#D55D43" stroke="#D55D43" stroke-miterlimit="10" cx="276.293" cy="339.976" rx="18.152" ry="11.43"/>
<ellipse fill="#CBCFC0" stroke="#D55D43" stroke-miterlimit="10" cx="266.191" cy="351.144" rx="18.152" ry="11.43"/>
<ellipse fill="#D55D43" stroke="#D55D43" stroke-miterlimit="10" cx="255.982" cy="362.314" rx="18.152" ry="11.43"/>
<ellipse fill="#CBCFC0" stroke="#D55D43" stroke-miterlimit="10" cx="245.848" cy="373.64" rx="18.152" ry="11.43"/>
<ellipse fill="#D55D43" stroke="#D55D43" stroke-miterlimit="10" cx="378.152" cy="385.069" rx="18.152" ry="11.431"/>
<ellipse fill="#CBCFC0" stroke="#D55D43" stroke-miterlimit="10" cx="360" cy="385.069" rx="18.152" ry="11.431"/>
<ellipse fill="#D55D43" stroke="#D55D43" stroke-miterlimit="10" cx="341.848" cy="385.069" rx="18.152" ry="11.431"/>
<ellipse fill="#CBCFC0" stroke="#D55D43" stroke-miterlimit="10" cx="323.695" cy="385.069" rx="18.152" ry="11.431"/>
<ellipse fill="#D55D43" stroke="#D55D43" stroke-miterlimit="10" cx="305.543" cy="385.069" rx="18.152" ry="11.431"/>
<ellipse fill="#CBCFC0" stroke="#D55D43" stroke-miterlimit="10" cx="288.167" cy="385.069" rx="18.152" ry="11.431"/>
<ellipse fill="#D55D43" stroke="#D55D43" stroke-miterlimit="10" cx="270.368" cy="385.068" rx="18.152" ry="11.431"/>
<ellipse fill="#CBCFC0" stroke="#D55D43" stroke-miterlimit="10" cx="252.216" cy="385.069" rx="18.152" ry="11.431"/>
<ellipse fill="#D55D43" stroke="#D55D43" stroke-miterlimit="10" cx="234.063" cy="385.069" rx="18.152" ry="11.431"/>
</svg>
